<?xml version="1.0"?><svg xmlns="http://www.w3.org/2000/svg" version="1.1" width="189.414" height="220.493" viewBox="0 0 189.414 220.493"><g transform="translate(-313.695,-418.308)"><path d="m 0,0 c 0,-6.187 -5.016,-11.203 -11.203,-11.203 -6.188,0 -11.203,5.016 -11.203,11.203 0,6.188 5.015,11.203 11.203,11.203 C -5.016,11.203 0,6.188 0,0" style="fill:#00786d;fill-opacity:1;fill-rule:nonzero;stroke:none" transform="matrix(1.3333333,0,0,-1.3333333,422.93747,459.83333)"></path><path d="m 0,0 c 0,-8.291 -6.722,-15.013 -15.013,-15.013 -8.291,0 -15.012,6.722 -15.012,15.013 0,8.292 6.721,15.013 15.012,15.013 C -6.722,15.013 0,8.292 0,0" style="fill:#aeceef;fill-opacity:1;fill-rule:nonzero;stroke:none" transform="matrix(1.3333333,0,0,-1.3333333,428.01693,456.32547)"></path><path d="m 0,0 c 0,0 5.281,2.641 10.768,-0.61 5.485,-3.25 6.4,-8.228 6.4,-10.767 0,-2.54 -0.406,-6.196 -6.604,-13.409 -6.197,-7.213 -13.093,-13.917 -14.877,-17.067 v -14.119 c 0,0 20.464,7.111 31.638,17.777 11.175,10.666 15.034,18.996 15.034,29.256 0,10.259 -7.212,19.605 -18.081,20.723 C 13.409,12.901 4.57,6.095 0,0" style="fill:#aeceef;fill-opacity:1;fill-rule:nonzero;stroke:none" transform="matrix(1.3333333,0,0,-1.3333333,413.75,489.99347)"></path><path d="m 0,0 c 0,0 -5.282,2.641 -10.768,-0.61 -5.485,-3.25 -6.399,-8.228 -6.399,-10.767 0,-2.54 0.406,-6.196 6.603,-13.409 6.196,-7.213 13.094,-13.917 14.877,-17.067 v -14.119 c 0,0 -20.464,7.111 -31.638,17.777 -11.175,10.666 -15.034,18.996 -15.034,29.256 0,10.259 7.212,19.605 18.081,20.723 C -13.409,12.901 -4.571,6.095 0,0" style="fill:#7893b0;fill-opacity:1;fill-rule:nonzero;stroke:none" transform="matrix(1.3333333,0,0,-1.3333333,402.25,489.99347)"></path><path d="m 1.0434531,-0.91410781 c 0.28125,-0.19335939 0.6621094,-0.32812499 1.1484375,-0.39843749 0.703125,-0.084961 1.2451172,-0.2226563 1.6289063,-0.4101563 0.3105469,-0.2636718 0.5185547,-0.6386718 0.6210937,-1.125 0.1230469,-0.6240234 0.1875,-2.8271484 0.1875,-6.609375 0,-3.7177734 -0.1142578,-6.1171874 -0.3398437,-7.1953124 -0.3837891,-0.240234 -0.8789063,-0.433594 -1.4882813,-0.574219 -0.196289,-0.0293 -0.5976562,-0.123047 -1.2070312,-0.28125 v -0.867187 c 1.03125,-0.295899 1.8632812,-0.679688 2.4960937,-1.148438 0.6328125,-0.46875 1.5146485,-1.40918 2.6484375,-2.824219 h 0.1640625 c 0.099609,0 0.2636719,-0.0059 0.4921875,-0.02344 0.140625,0.01758 0.2519532,0.05859 0.3398438,0.128906 l -0.023437,2.976563 c 0,0.609375 0.014648,1.262695 0.046875,1.957031 1.8662109,-1.6875 3.5419916,-2.871094 5.0273436,-3.550781 1.007812,-0.451172 2.147461,-0.679688 3.421875,-0.679688 1.514648,0 2.71289,0.290039 3.597656,0.867188 0.890625,0.571289 1.737305,1.605468 2.542969,3.105468 1.552734,-1.529296 2.958984,-2.601562 4.21875,-3.210937 1.265625,-0.609375 2.542968,-0.914063 3.832031,-0.914063 1.951172,0 3.553711,0.638672 4.804687,1.910157 1.242188,1.289062 1.87793,3.18164 1.910157,5.671875 v 2.167968 l 0.02344,2.3789067 -0.02344,6.1171875 c -0.01758,0.711914 0.140625,1.2509765 0.46875,1.6171875 0.140625,0.055664 0.670898,0.2109375 1.59375,0.46875 0.577148,0.1582031 0.916992,0.2783203 1.019531,0.36328124 0.108398,0.0878906 0.164062,0.20800781 0.164062,0.36328125 0,0.19628906 -0.05566,0.421875 -0.164062,0.6796875 h -0.175781 l -2.636719,-0.15234375 c -0.322266,-0.0146484 -0.820313,-0.0234375 -1.5,-0.0234375 -0.837891,0 -2.000977,0.03515625 -3.492188,0.10546875 h -1.335937 c -0.196289,0 -0.571289,0.0087891 -1.125,0.0234374975 -0.01758,-0.1552734375 -0.02344,-0.2958984375 -0.02344,-0.4218749975 0,-0.140625 0.05859,-0.31054688 0.175782,-0.515625 0.46875,-0.21093749 1.113281,-0.38085939 1.933593,-0.51562499 0.820313,-0.131836 1.327149,-0.366211 1.523438,-0.703125 0.202148,-0.3427735 0.304687,-1.6992188 0.304687,-4.0664063 0,-5.1386714 -0.05859,-8.1210934 -0.175781,-8.9414064 -0.210937,-1.303711 -0.767578,-2.326172 -1.664062,-3.070312 -0.899414,-0.741211 -2.027344,-1.113282 -3.386719,-1.113282 -1.040039,0 -2.05957,0.278321 -3.058594,0.832032 -0.993164,0.547851 -1.96582,1.368164 -2.917969,2.460937 l -0.03516,0.632813 v 3.996093 l -0.105469,3.1171879 c 0,3.1728516 0.0293,4.9775391 0.09375,5.4140625 0.06152,0.4306641 0.210938,0.7470703 0.445313,0.9492188 0.234375,0.196289 0.916992,0.375 2.050781,0.5390625 0.506836,0.064453 0.902344,0.1289062 1.183594,0.1992187 0.202148,0.1816407 0.304687,0.4072266 0.304687,0.67968754 0,0.22851562 -0.0791,0.38671875 -0.234375,0.48046875 h -0.445312 l -1.300781,-0.03515625 h -7.605469 l -2.097656,0.03515625 c -0.03223,-0.26367188 -0.04687,-0.45996094 -0.04687,-0.5859375 l 0.02344,-0.3046875 c 0.380859,-0.21093749 1.095703,-0.41308599 2.144531,-0.60937499 0.539063,-0.084961 1.095703,-0.234375 1.675782,-0.4453125 0.09961,-0.084961 0.178711,-0.1992188 0.234375,-0.3398438 0.08496,-0.2402343 0.143554,-0.9375 0.175781,-2.0859375 l 0.140625,-3.0351562 -0.05859,-3.4218747 0.02344,-1.910157 c 0,-2.138671 -0.439454,-3.703125 -1.3125,-4.6875 -0.867188,-0.984375 -1.962891,-1.476562 -3.28125,-1.476562 -1.242188,0 -2.484375,0.304687 -3.726563,0.914062 -1.2421869,0.609375 -2.2734369,1.429688 -3.0937494,2.460938 -0.023437,0.486328 -0.035156,0.925781 -0.035156,1.324219 l 0.1054687,8.7890622 c 0.023437,1.9160156 0.131836,3.008789 0.328125,3.28125 0.2021485,0.2666015 0.6503906,0.4541015 1.3476563,0.5625 1.1162114,0.1582031 1.8398444,0.3486328 2.1679694,0.5742187 0.155273,0.1025391 0.234375,0.25781254 0.234375,0.46875004 0,0.140625 -0.0088,0.3046875 -0.02344,0.4921875 -1.9863283,-0.140625 -3.3164064,-0.2109375 -3.9960939,-0.2109375 -0.6972656,0 -1.3242188,0.0117188 -1.8867188,0.0351563 l -1.3007812,0.0703125 H 3.9262656 l -2.92968747,0.10546875 c -0.0410156,-0.1171875 -0.0585938,-0.21679688 -0.0585938,-0.3046875 0,-0.09375 0.0351563,-0.26953125 0.10546867,-0.52734375 z M 66.530758,-3.5508266 c 0.108398,0.2285157 0.164062,0.3925782 0.164062,0.4921875 0,0.2578125 -0.210937,0.7207032 -0.632812,1.3828125 -0.539063,0.8759766 -1.142578,1.51171879 -1.804688,1.91015629 -0.416015,0.26367187 -0.990234,0.3984375 -1.722656,0.3984375 -1.250976,0 -2.191406,-0.38671875 -2.824219,-1.16015625 -0.383789,-0.45117188 -0.65332,-1.25976564 -0.808593,-2.42578124 l -2.929688,2.03906249 c -1.025391,0.59472656 -1.804687,0.96679687 -2.34375,1.125 -0.875976,0.22558593 -1.921875,0.33984375 -3.140625,0.33984375 -0.890625,0 -1.59375,-0.26660157 -2.109375,-0.796875 -0.509766,-0.53027344 -0.761719,-1.21289064 -0.761719,-2.05078124 0,-1.2011719 0.732422,-2.6396485 2.203125,-4.3125 1.467774,-1.6699219 3.46875,-3.038086 6,-4.1015627 1.772461,-0.75 2.862305,-1.230469 3.269532,-1.441406 0.0293,-0.577149 0.04687,-1.207031 0.04687,-1.886719 0,-2.208984 -0.310547,-3.706055 -0.925782,-4.488281 -0.618164,-0.788086 -1.5,-1.183594 -2.648437,-1.183594 -1.204102,0 -2.329102,0.47461 -3.375,1.417969 -0.650391,0.594726 -1.136719,1.708008 -1.464844,3.339844 -0.102539,0.454101 -0.301758,0.943359 -0.597656,1.464843 -0.75,0.492188 -1.353516,0.738282 -1.804688,0.738282 -0.383789,0 -0.732422,-0.111328 -1.042968,-0.339844 -0.181641,-0.123047 -0.269532,-0.263672 -0.269532,-0.421875 0,-0.451172 0.483399,-1.476563 1.453125,-3.070313 0.966797,-1.59375 2.185547,-2.783203 3.65625,-3.574218 1.476563,-0.796875 2.759766,-1.195313 3.855469,-1.195313 1.5,0 2.613281,0.137695 3.339844,0.410156 0.732422,0.266602 1.376953,0.738282 1.933594,1.417969 0.5625,0.679688 0.905273,1.417969 1.03125,2.214844 0.07031,0.383789 0.105468,1.754883 0.105468,4.113281 l -0.08203,4.1484377 0.02344,3.0351562 c 0,0.3984375 -0.0088,0.7382813 -0.02344,1.0195313 -0.01758,0.5097656 -0.02344,0.8847656 -0.02344,1.125 0,0.571289 0.164062,1.03125 0.492187,1.3828125 0.333984,0.3515625 0.729492,0.5273437 1.183594,0.5273437 0.65625,0 1.22168,-0.3310547 1.699219,-0.9960937 l 0.304687,-0.421875 c 0.08496,-0.046875 0.275391,-0.1054688 0.574219,-0.1757813 z m -7.675781,-0.7617187 c 0.117187,-2.2089844 0.175781,-3.7675781 0.175781,-4.6757813 0,-0.4746093 -0.02344,-1.1132814 -0.07031,-1.9101564 -1.171875,0.416016 -2.411132,1.051758 -3.714843,1.9101564 -1.306641,0.8525391 -2.34375,1.8369141 -3.117188,2.953125 -0.556641,0.796875 -0.832031,1.5556641 -0.832031,2.2734375 0,0.6796875 0.228515,1.2480469 0.691406,1.6992188 0.459961,0.4541015 1.037109,0.6796875 1.734375,0.6796875 0.544922,0 1.201172,-0.1904297 1.96875,-0.5742188 1.007813,-0.5068359 2.0625,-1.2919922 3.164063,-2.3554687 z m 15.963867,-2.3320313 c 0.647461,1.6582032 1.136719,2.7304688 1.464844,3.2226563 0.662109,0.993164 1.456054,1.7636719 2.378906,2.3085937 0.928711,0.5478516 1.933594,0.82031254 3.011719,0.82031254 0.990234,0 1.974609,-0.42480469 2.953125,-1.27734374 0.694335,-0.6386719 1.042968,-1.3886719 1.042968,-2.25 0,-1.1308594 -0.410156,-2.1738281 -1.230468,-3.1289063 -0.820313,-0.9433593 -2.375977,-1.8457031 -4.664063,-2.7070312 -2.291016,-0.8671877 -3.829102,-1.7841797 -4.617187,-2.7539067 -0.782227,-0.975586 -1.171875,-2.091796 -1.171875,-3.351562 0,-1.186524 0.319335,-2.232422 0.960937,-3.140625 0.647461,-0.905274 1.538086,-1.587891 2.671875,-2.050781 1.130859,-0.459961 2.179688,-0.691407 3.140625,-0.691407 1.233398,0 2.34375,0.09961 3.328125,0.292969 0.984375,0.1875 1.833984,0.486328 2.554688,0.890625 0.131835,0.884766 0.246093,2.188477 0.339843,3.914063 l 0.04687,0.832031 c -0.228515,0.02344 -0.418945,0.03516 -0.574218,0.03516 h -0.363282 c -0.524414,-1.444336 -1.324218,-2.589844 -2.402343,-3.433594 -1.072266,-0.849609 -2.126954,-1.277343 -3.164063,-1.277343 -1.048828,0 -1.895508,0.322265 -2.542969,0.960937 -0.641601,0.632813 -0.960937,1.464844 -0.960937,2.496094 0,0.782226 0.260742,1.476562 0.785156,2.085937 0.521484,0.609375 1.746094,1.309571 3.667969,2.097657 1.927734,0.782226 3.331054,1.508789 4.207031,2.179687 0.881836,0.6738283 1.529297,1.4882814 1.945313,2.4492189 0.421875,0.9550782 0.632812,1.8691407 0.632812,2.7421875 0,1.1953125 -0.398437,2.3173828 -1.195312,3.3632813 -0.791016,1.04882811 -1.78125,1.78124999 -2.976563,2.20312499 -1.195312,0.42773437 -2.261719,0.64453125 -3.199219,0.64453125 -2.211914,0 -4.250976,-0.40722657 -6.117187,-1.21875 -0.172852,-0.140625 -0.269531,-0.40136719 -0.292969,-0.78515624 0,-0.1552735 -0.01758,-0.4101563 -0.04687,-0.7617188 -0.28125,-2.3496093 -0.421875,-3.7441406 -0.421875,-4.1835937 0,-0.2109375 0.04102,-0.3515625 0.128906,-0.421875 0.09375,-0.070312 0.319336,-0.1054688 0.679688,-0.1054688 z m 41.015626,3.09375 c 0.1084,0.2285157 0.16406,0.3925782 0.16406,0.4921875 0,0.2578125 -0.21094,0.7207032 -0.63281,1.3828125 -0.53906,0.8759766 -1.14258,1.51171879 -1.80469,1.91015629 -0.41601,0.26367187 -0.99023,0.3984375 -1.72265,0.3984375 -1.25098,0 -2.19141,-0.38671875 -2.82422,-1.16015625 -0.38379,-0.45117188 -0.65332,-1.25976564 -0.8086,-2.42578124 l -2.92968,2.03906249 c -1.0254,0.59472656 -1.80469,0.96679687 -2.34375,1.125 -0.87598,0.22558593 -1.92188,0.33984375 -3.14063,0.33984375 -0.890625,0 -1.59375,-0.26660157 -2.109375,-0.796875 -0.509766,-0.53027344 -0.761719,-1.21289064 -0.761719,-2.05078124 0,-1.2011719 0.732422,-2.6396485 2.203125,-4.3125 1.467769,-1.6699219 3.468749,-3.038086 5.999999,-4.1015627 1.77246,-0.75 2.86231,-1.230469 3.26953,-1.441406 0.0293,-0.577149 0.0469,-1.207031 0.0469,-1.886719 0,-2.208984 -0.31055,-3.706055 -0.92578,-4.488281 -0.61817,-0.788086 -1.5,-1.183594 -2.64844,-1.183594 -1.2041,0 -2.3291,0.47461 -3.375,1.417969 -0.65039,0.594726 -1.13672,1.708008 -1.46484,3.339844 -0.102544,0.454101 -0.301763,0.943359 -0.597661,1.464843 -0.75,0.492188 -1.353516,0.738282 -1.804688,0.738282 -0.383789,0 -0.732422,-0.111328 -1.042968,-0.339844 -0.181641,-0.123047 -0.269532,-0.263672 -0.269532,-0.421875 0,-0.451172 0.483399,-1.476563 1.453125,-3.070313 0.966797,-1.59375 2.185547,-2.783203 3.656254,-3.574218 1.47656,-0.796875 2.75976,-1.195313 3.85547,-1.195313 1.5,0 2.61328,0.137695 3.33984,0.410156 0.73242,0.266602 1.37695,0.738282 1.93359,1.417969 0.5625,0.679688 0.90528,1.417969 1.03125,2.214844 0.0703,0.383789 0.10547,1.754883 0.10547,4.113281 l -0.082,4.1484377 0.0234,3.0351562 c 0,0.3984375 -0.009,0.7382813 -0.0234,1.0195313 -0.0176,0.5097656 -0.0234,0.8847656 -0.0234,1.125 0,0.571289 0.16407,1.03125 0.49219,1.3828125 0.33398,0.3515625 0.72949,0.5273437 1.18359,0.5273437 0.65625,0 1.22168,-0.3310547 1.69922,-0.9960937 l 0.30469,-0.421875 c 0.085,-0.046875 0.27539,-0.1054688 0.57422,-0.1757813 z m -7.67578,-0.7617187 c 0.11719,-2.2089844 0.17578,-3.7675781 0.17578,-4.6757813 0,-0.4746093 -0.0234,-1.1132814 -0.0703,-1.9101564 -1.17188,0.416016 -2.41114,1.051758 -3.71485,1.9101564 -1.30664,0.8525391 -2.34375,1.8369141 -3.11718,2.953125 -0.55665,0.796875 -0.83204,1.5556641 -0.83204,2.2734375 0,0.6796875 0.22852,1.2480469 0.69141,1.6992188 0.45996,0.4541015 1.03711,0.6796875 1.73438,0.6796875 0.54492,0 1.20117,-0.1904297 1.96875,-0.5742188 1.00781,-0.5068359 2.0625,-1.2919922 3.16406,-2.3554687 z m 0,0" style="fill:#2e4a69;fill-opacity:1;fill-rule:nonzero;stroke:none" transform="matrix(1.3333333,0,0,1.3333333,330.44467,619.69147)"></path></g></svg>